<svg width="23" height="23" viewBox="0 0 23 23" fill="none" xmlns="http://www.w3.org/2000/svg">
<path fill-rule="evenodd" clip-rule="evenodd" d="M6.5275 0.318441C7.7005 0.264441 8.0745 0.252441 11.0625 0.252441C14.0505 0.252441 14.4245 0.265441 15.5965 0.318441C16.7685 0.371441 17.5685 0.558441 18.2685 0.829441C19.0015 1.10644 19.6665 1.53944 20.2165 2.09944C20.7765 2.64844 21.2085 3.31244 21.4845 4.04644C21.7565 4.74644 21.9425 5.54644 21.9965 6.71644C22.0505 7.89144 22.0625 8.26544 22.0625 11.2524C22.0625 14.2404 22.0495 14.6144 21.9965 15.7874C21.9435 16.9574 21.7565 17.7574 21.4845 18.4574C21.2085 19.1915 20.7758 19.8566 20.2165 20.4064C19.6665 20.9664 19.0015 21.3984 18.2685 21.6744C17.5685 21.9464 16.7685 22.1324 15.5985 22.1864C14.4245 22.2404 14.0505 22.2524 11.0625 22.2524C8.0745 22.2524 7.7005 22.2394 6.5275 22.1864C5.3575 22.1334 4.5575 21.9464 3.8575 21.6744C3.12342 21.3984 2.45832 20.9657 1.9085 20.4064C1.34888 19.8571 0.915815 19.1923 0.6395 18.4584C0.3685 17.7584 0.1825 16.9584 0.1285 15.7884C0.0745 14.6134 0.0625 14.2394 0.0625 11.2524C0.0625 8.26444 0.0755 7.89044 0.1285 6.71844C0.1815 5.54644 0.3685 4.74644 0.6395 4.04644C0.916223 3.31252 1.34962 2.64775 1.9095 2.09844C2.45854 1.53894 3.12297 1.10588 3.8565 0.829441C4.5565 0.558441 5.3565 0.372441 6.5265 0.318441H6.5275ZM15.5075 2.29844C14.3475 2.24544 13.9995 2.23444 11.0625 2.23444C8.1255 2.23444 7.7775 2.24544 6.6175 2.29844C5.5445 2.34744 4.9625 2.52644 4.5745 2.67744C4.0615 2.87744 3.6945 3.11444 3.3095 3.49944C2.94455 3.85449 2.66368 4.28672 2.4875 4.76444C2.3365 5.15244 2.1575 5.73444 2.1085 6.80744C2.0555 7.96744 2.0445 8.31544 2.0445 11.2524C2.0445 14.1894 2.0555 14.5374 2.1085 15.6974C2.1575 16.7704 2.3365 17.3524 2.4875 17.7404C2.6635 18.2174 2.9445 18.6504 3.3095 19.0054C3.6645 19.3704 4.0975 19.6514 4.5745 19.8274C4.9625 19.9784 5.5445 20.1574 6.6175 20.2064C7.7775 20.2594 8.1245 20.2704 11.0625 20.2704C14.0005 20.2704 14.3475 20.2594 15.5075 20.2064C16.5805 20.1574 17.1625 19.9784 17.5505 19.8274C18.0635 19.6274 18.4305 19.3904 18.8155 19.0054C19.1805 18.6504 19.4615 18.2174 19.6375 17.7404C19.7885 17.3524 19.9675 16.7704 20.0165 15.6974C20.0695 14.5374 20.0805 14.1894 20.0805 11.2524C20.0805 8.31544 20.0695 7.96744 20.0165 6.80744C19.9675 5.73444 19.7885 5.15244 19.6375 4.76444C19.4375 4.25144 19.2005 3.88444 18.8155 3.49944C18.4604 3.13451 18.0282 2.85365 17.5505 2.67744C17.1625 2.52644 16.5805 2.34744 15.5075 2.29844V2.29844ZM9.6575 14.6434C10.4422 14.9701 11.3159 15.0142 12.1294 14.7682C12.943 14.5222 13.6459 14.0014 14.1181 13.2947C14.5903 12.588 14.8026 11.7393 14.7185 10.8935C14.6345 10.0478 14.2595 9.25741 13.6575 8.65744C13.2737 8.27392 12.8097 7.98025 12.2988 7.79759C11.788 7.61492 11.2429 7.5478 10.703 7.60106C10.1631 7.65431 9.64165 7.82662 9.1763 8.10557C8.71096 8.38453 8.31324 8.76319 8.0118 9.21429C7.71036 9.6654 7.51269 10.1777 7.43302 10.7144C7.35334 11.2511 7.39365 11.7987 7.55104 12.318C7.70843 12.8372 7.97898 13.3151 8.34322 13.7172C8.70746 14.1193 9.15632 14.4356 9.6575 14.6434ZM7.0645 7.25444C7.58952 6.72942 8.21282 6.31294 8.8988 6.0288C9.58478 5.74466 10.32 5.59842 11.0625 5.59842C11.805 5.59842 12.5402 5.74466 13.2262 6.0288C13.9122 6.31294 14.5355 6.72942 15.0605 7.25444C15.5855 7.77947 16.002 8.40276 16.2861 9.08874C16.5703 9.77472 16.7165 10.5099 16.7165 11.2524C16.7165 11.9949 16.5703 12.7302 16.2861 13.4161C16.002 14.1021 15.5855 14.7254 15.0605 15.2504C14.0002 16.3108 12.562 16.9065 11.0625 16.9065C9.56296 16.9065 8.12484 16.3108 7.0645 15.2504C6.00416 14.1901 5.40847 12.752 5.40847 11.2524C5.40847 9.7529 6.00416 8.31478 7.0645 7.25444V7.25444ZM17.9705 6.44044C18.1006 6.31771 18.2048 6.17012 18.2768 6.00642C18.3488 5.84271 18.3873 5.66621 18.3899 5.48737C18.3925 5.30853 18.3592 5.13099 18.292 4.96525C18.2247 4.79951 18.1249 4.64895 17.9985 4.52248C17.872 4.39601 17.7214 4.2962 17.5557 4.22896C17.39 4.16172 17.2124 4.12842 17.0336 4.13102C16.8547 4.13363 16.6782 4.1721 16.5145 4.24414C16.3508 4.31618 16.2032 4.42034 16.0805 4.55044C15.8418 4.80347 15.7111 5.13956 15.7162 5.48737C15.7213 5.83518 15.8617 6.16732 16.1077 6.41328C16.3536 6.65925 16.6858 6.79967 17.0336 6.80474C17.3814 6.80981 17.7175 6.67913 17.9705 6.44044V6.44044Z" fill="white"/>
</svg>
